<svg width="32" height="32" viewBox="0 0 32 32" fill="none" xmlns="http://www.w3.org/2000/svg">
<rect width="32" height="32" fill="white"/>
<path d="M30.1015 18.2193C30.0833 18.3149 30.0099 18.4298 29.817 18.5514C29.6244 18.6729 29.3392 18.7833 28.9582 18.8748C28.1978 19.0576 27.1139 19.1524 25.7768 19.1529C23.1069 19.1539 19.4793 18.7793 15.5295 18.026C11.5797 17.2728 8.06878 16.2861 5.5866 15.3026C4.34356 14.8101 3.37059 14.323 2.73084 13.8733C2.41024 13.6479 2.1857 13.4404 2.05131 13.2565C1.91677 13.0724 1.89076 12.9386 1.909 12.843C1.92723 12.7474 2.00067 12.6325 2.1935 12.5109C2.38613 12.3894 2.67129 12.279 3.05233 12.1874C3.81271 12.0047 4.89663 11.9099 6.23368 11.9094C8.9036 11.9084 12.5313 12.283 16.481 13.0362C20.4308 13.7895 23.9417 14.7762 26.4239 15.7597C27.667 16.2522 28.6399 16.7392 29.2797 17.189C29.6003 17.4144 29.8248 17.6219 29.9592 17.8058C30.0937 17.9899 30.1198 18.1237 30.1015 18.2193Z" stroke="black" stroke-width="0.5"/>
</svg>
